# xmcd
#
# Track frame offsets:
# 150
# 17595
# 28110
# 54066
# 72450
# 87885
# 102442
# 115849
# 134206
# 150216
# 171481
#
# Disc length: 2607 seconds
#
# Revision: 1
# Processed by: cddbd v1.5.2PL0 Copyright (c) Steve Scherf et al.
# Submitted via: CedeCatalogueitor 2.6.0.6 http://personales.ya.com/cdcatalogueitor
#
DISCID=8d0a2d0b
DTITLE=Julian Elsie - Dig A Grave With Bare Hands
DYEAR=1900
DGENRE=
TTITLE0=Adieu
TTITLE1=Elothing Stains
TTITLE2="cum.."
TTITLE3=My Own Funeral
TTITLE4=Locked Lump
TTITLE5=Loose End
TTITLE6=The Need To Kill
TTITLE7=Someone Else's Friend
TTITLE8=Sometimes
TTITLE9=Sweet Shivers
TTITLE10=2 Years
EXTD=
EXTT0=
EXTT1=
EXTT2=
EXTT3=
EXTT4=
EXTT5=
EXTT6=
EXTT7=
EXTT8=
EXTT9=
EXTT10=
PLAYORDER=
